<svg xmlns="http://www.w3.org/2000/svg" viewBox="0 0 1200 760">
  <defs>
    <linearGradient id="g" x1="0" y1="0" x2="1" y2="1">
      <stop offset="0%" stop-color="#651a2b"/>
      <stop offset="100%" stop-color="#7d2436"/>
    </linearGradient>
    <linearGradient id="g2" x1="0" y1="0" x2="1" y2="0">
      <stop offset="0%" stop-color="#f4e8e3"/>
      <stop offset="100%" stop-color="#d8beb3"/>
    </linearGradient>
  </defs>
  <rect width="1200" height="760" rx="36" fill="#fdf8f3"/>
  <rect x="28" y="28" width="1144" height="704" rx="32" fill="url(#g)"/>
  <circle cx="920" cy="160" r="220" fill="#c79b69" opacity=".18"/>
  <circle cx="210" cy="120" r="160" fill="#f4e8e3" opacity=".10"/>
  <rect x="72" y="80" width="340" height="126" rx="24" fill="rgba(255,255,255,.12)"/>
  <text x="102" y="135" font-size="42" font-family="Arial, Helvetica, sans-serif" font-weight="700" fill="#ffffff">Rotaract 3080</text>
  <text x="102" y="178" font-size="24" font-family="Arial, Helvetica, sans-serif" fill="#f5e5dc">Official district image</text>
  <rect x="72" y="566" width="520" height="112" rx="24" fill="rgba(255,255,255,.12)"/>
  <text x="102" y="617" font-size="34" font-family="Arial, Helvetica, sans-serif" font-weight="700" fill="#ffffff">Service. Leadership. Fellowship.</text>
  <text x="102" y="655" font-size="22" font-family="Arial, Helvetica, sans-serif" fill="#f5e5dc">This image will load from the official district site when online.</text>
  <rect x="734" y="104" width="382" height="552" rx="36" fill="rgba(255,255,255,.08)" stroke="rgba(255,255,255,.22)" stroke-width="2"/>
  <rect x="774" y="142" width="302" height="90" rx="18" fill="url(#g2)" opacity=".8"/>
  <rect x="774" y="250" width="302" height="70" rx="18" fill="rgba(255,255,255,.1)"/>
  <rect x="774" y="336" width="302" height="70" rx="18" fill="rgba(255,255,255,.1)"/>
  <rect x="774" y="422" width="302" height="70" rx="18" fill="rgba(255,255,255,.1)"/>
  <text x="802" y="198" font-size="24" font-family="Arial, Helvetica, sans-serif" font-weight="700" fill="#651a2b">Premium visual slot</text>
  <text x="802" y="292" font-size="22" font-family="Arial, Helvetica, sans-serif" fill="#ffffff">Designed to hold official images</text>
  <text x="802" y="378" font-size="22" font-family="Arial, Helvetica, sans-serif" fill="#ffffff">without leaving empty space.</text>
  <text x="802" y="464" font-size="22" font-family="Arial, Helvetica, sans-serif" fill="#ffffff">Replaces blank hero voids.</text>
</svg>